<?xml version="1.0" encoding="utf-8"?>
<!-- Generator: Adobe Illustrator 16.0.0, SVG Export Plug-In . SVG Version: 6.00 Build 0)  -->
<!DOCTYPE svg PUBLIC "-//W3C//DTD SVG 1.1//EN" "http://www.w3.org/Graphics/SVG/1.1/DTD/svg11.dtd">
<svg version="1.1" id="Layer_1" xmlns="http://www.w3.org/2000/svg" xmlns:xlink="http://www.w3.org/1999/xlink" x="0px" y="0px"
	 width="70px" height="20px" viewBox="0 0 70 20" enable-background="new 0 0 70 20" xml:space="preserve">
<polygon fill="#94CFE1" points="6.687,3.037 8.27,7.91 13.396,7.91 9.25,11.011 10.833,15.929 6.687,12.94 2.542,15.963 
	4.125,11.006 -0.022,7.91 5.104,7.91 "/>
<polygon fill="#94CFE1" points="20.934,3.037 22.518,7.91 27.644,7.91 23.498,11.011 25.081,15.929 20.934,12.94 16.79,15.963 
	18.372,11.006 14.226,7.91 19.351,7.91 "/>
<polygon fill="#94CFE1" points="35.183,3.037 36.766,7.91 41.891,7.91 37.746,11.011 39.328,15.929 35.183,12.94 31.037,15.963 
	32.62,11.006 28.474,7.91 33.6,7.91 "/>
<polygon fill="#DFE0E0" points="49.43,3.037 51.014,7.91 56.139,7.91 51.994,11.011 53.576,15.929 49.43,12.94 45.285,15.963 
	46.867,11.006 42.721,7.91 47.848,7.91 "/>
<polygon fill="#DFE0E0" points="63.313,3.037 64.896,7.91 70.021,7.91 65.877,11.011 67.459,15.929 63.313,12.94 59.168,15.963 
	60.75,11.006 56.605,7.91 61.73,7.91 "/>
</svg>
