<svg style="display: none;"><symbol viewBox="0 0 138.289 24" id="shape-five-star"><title>five-star</title> <polygon fill="#94CFE1" points="12.714,-0.136 15.682,9 25.289,9 17.517,14.813 20.485,24.032 12.714,18.427 4.943,24.096 
	7.911,14.803 0.139,9 9.746,9 "/> <polygon fill="#94CFE1" points="40.714,-0.136 43.682,9 53.289,9 45.517,14.813 48.484,24.032 40.714,18.427 32.943,24.096 
	35.911,14.803 28.139,9 37.746,9 "/> <polygon fill="#94CFE1" points="68.714,-0.136 71.682,9 81.289,9 73.517,14.813 76.484,24.032 68.714,18.427 60.943,24.096 
	63.911,14.803 56.139,9 65.746,9 "/> <polygon fill="#94CFE1" points="96.714,-0.136 99.682,9 109.289,9 101.517,14.813 104.484,24.032 96.714,18.427 88.943,24.096 
	91.911,14.803 84.139,9 93.746,9 "/> <polygon fill="#94CFE1" points="125.714,-0.136 128.682,9 138.289,9 130.517,14.813 133.484,24.032 125.714,18.427 117.943,24.096 
	120.911,14.803 113.139,9 122.746,9 "/> </symbol><symbol viewBox="0 0 138.289 24" id="shape-four-star"><title>four-star</title> <polygon fill="#94CFE1" points="12.714,-0.136 15.682,9 25.289,9 17.517,14.813 20.485,24.032 12.714,18.427 4.943,24.096 
	7.911,14.803 0.139,9 9.746,9 "/> <polygon fill="#94CFE1" points="40.714,-0.136 43.682,9 53.289,9 45.517,14.813 48.484,24.032 40.714,18.427 32.943,24.096 
	35.911,14.803 28.139,9 37.746,9 "/> <polygon fill="#94CFE1" points="68.714,-0.136 71.682,9 81.289,9 73.517,14.813 76.484,24.032 68.714,18.427 60.943,24.096 
	63.911,14.803 56.139,9 65.746,9 "/> <polygon fill="#94CFE1" points="96.714,-0.136 99.682,9 109.289,9 101.517,14.813 104.484,24.032 96.714,18.427 88.943,24.096 
	91.911,14.803 84.139,9 93.746,9 "/> <polygon fill="#DFE0E0" points="125.714,-0.136 128.682,9 138.289,9 130.517,14.813 133.484,24.032 125.714,18.427 117.943,24.096 
	120.911,14.803 113.139,9 122.746,9 "/> </symbol><symbol viewBox="0 0 138.289 24" id="shape-one-star"><title>one-star</title> <polygon fill="#94CFE1" points="12.714,-0.136 15.682,9 25.289,9 17.517,14.813 20.485,24.032 12.714,18.427 4.943,24.096 
	7.911,14.803 0.139,9 9.746,9 "/> <polygon fill="#DFE0E0" points="40.714,-0.136 43.682,9 53.289,9 45.517,14.813 48.484,24.032 40.714,18.427 32.943,24.096 
	35.911,14.803 28.139,9 37.746,9 "/> <polygon fill="#DFE0E0" points="68.714,-0.136 71.682,9 81.289,9 73.517,14.813 76.484,24.032 68.714,18.427 60.943,24.096 
	63.911,14.803 56.139,9 65.746,9 "/> <polygon fill="#DFE0E0" points="96.714,-0.136 99.682,9 109.289,9 101.517,14.813 104.484,24.032 96.714,18.427 88.943,24.096 
	91.911,14.803 84.139,9 93.746,9 "/> <polygon fill="#DFE0E0" points="125.714,-0.136 128.682,9 138.289,9 130.517,14.813 133.484,24.032 125.714,18.427 117.943,24.096 
	120.911,14.803 113.139,9 122.746,9 "/> </symbol><symbol viewBox="0 0 138.289 24" id="shape-three-star"><title>three-star</title> <polygon fill="#94CFE1" points="12.714,-0.136 15.682,9 25.289,9 17.517,14.813 20.485,24.032 12.714,18.427 4.943,24.096 
	7.911,14.803 0.139,9 9.746,9 "/> <polygon fill="#94CFE1" points="40.714,-0.136 43.682,9 53.289,9 45.517,14.813 48.484,24.032 40.714,18.427 32.943,24.096 
	35.911,14.803 28.139,9 37.746,9 "/> <polygon fill="#94CFE1" points="68.714,-0.136 71.682,9 81.289,9 73.517,14.813 76.484,24.032 68.714,18.427 60.943,24.096 
	63.911,14.803 56.139,9 65.746,9 "/> <polygon fill="#DFE0E0" points="96.714,-0.136 99.682,9 109.289,9 101.517,14.813 104.484,24.032 96.714,18.427 88.943,24.096 
	91.911,14.803 84.139,9 93.746,9 "/> <polygon fill="#DFE0E0" points="125.714,-0.136 128.682,9 138.289,9 130.517,14.813 133.484,24.032 125.714,18.427 117.943,24.096 
	120.911,14.803 113.139,9 122.746,9 "/> </symbol><symbol viewBox="0 0 138.289 24" id="shape-two-star"><title>two-star</title> <polygon fill="#94CFE1" points="12.714,-0.136 15.682,9 25.289,9 17.517,14.813 20.485,24.032 12.714,18.427 4.943,24.096 
	7.911,14.803 0.139,9 9.746,9 "/> <polygon fill="#94CFE1" points="40.714,-0.136 43.682,9 53.289,9 45.517,14.813 48.484,24.032 40.714,18.427 32.943,24.096 
	35.911,14.803 28.139,9 37.746,9 "/> <polygon fill="#DFE0E0" points="68.714,-0.136 71.682,9 81.289,9 73.517,14.813 76.484,24.032 68.714,18.427 60.943,24.096 
	63.911,14.803 56.139,9 65.746,9 "/> <polygon fill="#DFE0E0" points="96.714,-0.136 99.682,9 109.289,9 101.517,14.813 104.484,24.032 96.714,18.427 88.943,24.096 
	91.911,14.803 84.139,9 93.746,9 "/> <polygon fill="#DFE0E0" points="125.714,-0.136 128.682,9 138.289,9 130.517,14.813 133.484,24.032 125.714,18.427 117.943,24.096 
	120.911,14.803 113.139,9 122.746,9 "/> </symbol></svg>